<svg xmlns="http://www.w3.org/2000/svg" width="42" height="40" viewBox="0 0 42 40" fill="none">
                        <path d="M24.5 31.584V37.7253H17.5V31.584H24.5ZM26.25 29.8293H15.75V39.48H26.25V29.8293Z" fill="white"></path>
                        <path d="M31.5 37.7253H10.5V39.48H31.5V37.7253Z" fill="white"></path>
                        <path d="M39.375 1.75467C39.9 1.75467 40.25 2.1056 40.25 2.632V24.5653H1.75V2.632C1.75 2.1056 2.1 1.75467 2.625 1.75467H39.375ZM39.375 0H2.625C1.1375 0 0 1.14053 0 2.632V26.32H42V2.632C42 1.14053 40.8625 0 39.375 0Z" fill="white"></path>
                        <path d="M40.25 26.3201V28.9521C40.25 29.4785 39.9 29.8294 39.375 29.8294H2.625C2.1 29.8294 1.75 29.4785 1.75 28.9521V26.3201H40.25ZM42 24.5654H0V28.9521C0 30.4436 1.1375 31.5841 2.625 31.5841H39.375C40.8625 31.5841 42 30.4436 42 28.9521V24.5654Z" fill="white"></path>
                        <path d="M21 8.59778C17.4125 5.61485 10.5 5.26392 10.5 5.26392V18.4239C15.6625 17.6343 21 21.0559 21 21.0559C21 21.0559 26.3375 17.6343 31.5 18.4239V5.26392C31.5 5.26392 24.2375 5.96578 21 8.59778Z" fill="#50E6FF"></path>
                    </svg>