<svg xmlns="http://www.w3.org/2000/svg" width="36" height="44" viewBox="0 0 36 44" fill="none">
                        <path d="M27 1.8V7.2V9H28.8H34.2V41.4H1.8V1.8H27ZM28.8 0H1.8C0.81 0 0 0.81 0 1.8V41.4C0 42.39 0.81 43.2 1.8 43.2H34.2C35.19 43.2 36 42.39 36 41.4V7.2H28.8V0Z" fill="white"></path>
                        <path d="M28.8 2.52L33.48 7.2H28.8V2.52ZM28.8 0H27V9H36V7.2L28.8 0Z" fill="white"></path>
                        <path d="M11.9699 28.9801L5.6699 22.6801C5.3099 22.3201 5.3099 21.7801 5.6699 21.4201L11.9699 15.1201L13.2299 16.3801L7.5599 22.0501L13.2299 27.7201L11.9699 28.9801Z" fill="#0065B3"></path>
                        <path d="M24.0298 28.9801L22.7698 27.7201L28.4398 22.0501L22.7698 16.3801L24.0298 15.1201L30.3298 21.4201C30.6898 21.7801 30.6898 22.3201 30.3298 22.6801L24.0298 28.9801Z" fill="#0065B3"></path>
                        <path d="M17.7299 30.1501H15.9299L18.4499 14.8501H20.2499L17.7299 30.1501Z" fill="#0065B3"></path>
                    </svg>