 <svg xmlns="http://www.w3.org/2000/svg" width="42" height="36" viewBox="0 0 42 36" fill="none">                        <path d="M29.75 1.75C30.275 1.75 30.625 2.1 30.625 2.625V21.875H14.875L7.525 27.65V21.875H2.625C2.1 21.875 1.75 21.525 1.75 21V2.625C1.75 2.1 2.1 1.75 2.625 1.75H29.75ZM29.75 0H2.625C1.1375 0 0 1.1375 0 2.625V21C0 22.4875 1.1375 23.625 2.625 23.625H5.775V27.65V31.2375L8.575 29.05L15.4875 23.7125H30.625H32.375V21.9625V2.625C32.375 1.1375 31.2375 0 29.75 0Z" fill="white"></path>                        <path d="M39.375 14H21C19.5125 14 18.375 15.1375 18.375 16.625V27.125C18.375 28.6125 19.5125 29.75 21 29.75H30.0125L33.95 32.9L36.75 35.175V31.5V29.75H39.375C40.8625 29.75 42 28.6125 42 27.125V16.625C42 15.1375 40.8625 14 39.375 14Z" fill="#00518F"></path>                    </svg>